<?xml version="1.0" encoding="utf-8"?>
<!-- Generator: Adobe Illustrator 28.0.0, SVG Export Plug-In . SVG Version: 6.00 Build 0)  -->
<svg version="1.1" id="Layer_1" xmlns="http://www.w3.org/2000/svg" xmlns:xlink="http://www.w3.org/1999/xlink" x="0px" y="0px"
	 viewBox="0 0 100 100" style="enable-background:new 0 0 100 100;" xml:space="preserve">
<style type="text/css">
	.st0{fill:#59845E;}
</style>
<g>
	<path class="st0" d="M0.823,62.09c0.45-0.781,0.367-1.679,0.528-2.52c1.012-5.282,3.208-10.005,6.613-14.156
		c0.488-0.595,0.767-1.21,0.905-1.945c0.532-2.831,1.383-5.567,2.504-8.219c0.544-1.285,1.559-1.793,2.645-1.34
		c1.031,0.431,1.42,1.516,0.923,2.744c-0.851,2.103-1.566,4.244-2.081,6.456c-0.13,0.557-0.038,0.663,0.514,0.771
		c12.854,2.531,21.298,10.047,25.165,22.561c1.549,5.011,1.424,10.139,0.458,15.277c-0.689,3.663-0.191,7.253,1.052,10.749
		c0.182,0.511,0.432,1.008,0.433,1.559c0,0.943-0.641,1.637-1.732,1.867c-8.338,1.761-16.168,0.396-23.322-4.181
		C6.943,86.285,2.23,78.412,1.003,68.434c-0.018-0.15,0.019-0.327-0.18-0.395C0.823,66.056,0.823,64.073,0.823,62.09z
		 M13.534,62.428c-0.06-0.028-0.12-0.056-0.181-0.084c0.001,0.074,0.002,0.148,0.004,0.222c0.009,0.063,0.01,0.128,0.027,0.188
		c2.009,6.793,5.582,12.63,10.695,17.531c0.942,0.903,1.014,2.081,0.241,2.886c-0.797,0.83-1.93,0.793-2.885-0.118
		c-1.181-1.126-2.318-2.294-3.347-3.562c-0.713-0.879-1.417-1.765-2.204-2.746c-0.115,0.542-0.199,0.937-0.284,1.331
		c-0.277,1.286-1.168,1.941-2.322,1.708c-1.122-0.226-1.696-1.222-1.441-2.502c0.306-1.533,0.573-3.076,0.941-4.594
		c0.149-0.616,0.038-1.094-0.232-1.629c-2.302-4.575-3.766-9.402-4.274-14.506c-0.132-1.324-0.206-2.654-0.309-4.014
		c-0.108,0.067-0.178,0.086-0.204,0.131c-0.095,0.166-0.179,0.338-0.262,0.511c-2.791,5.748-3.583,11.756-2.164,17.992
		c3.159,13.876,15.687,22.824,29.907,21.448c0.714-0.069,0.721-0.28,0.556-0.885c-1.025-3.754-1.21-7.55-0.478-11.386
		c0.797-4.171,0.823-8.351-0.364-12.439C31.741,56.839,24.411,50.148,13.16,47.705c-0.86-0.187-1.147,0.04-1.197,0.926
		c-0.16,2.817-0.131,5.622,0.209,8.425c0.065,0.536,0.274,0.826,0.801,1.016c2.217,0.8,4.417,1.649,6.624,2.478
		c1.532,0.576,2.134,1.542,1.683,2.712c-0.435,1.129-1.52,1.455-2.995,0.91C16.703,63.587,15.118,63.009,13.534,62.428z"/>
	<path class="st0" d="M67.27,95.578c-1.27-0.047-2.995-0.093-4.694-0.437c-0.635-0.129-1.236-0.087-1.868,0.138
		c-2.834,1.01-5.758,1.659-8.742,2.039c-1.151,0.147-2.072-0.481-2.267-1.552c-0.203-1.109,0.464-2.032,1.692-2.225
		c2.271-0.358,4.523-0.782,6.734-1.434c0.662-0.195,0.672-0.406,0.462-0.981c-6.074-16.641,2.207-34.494,18.841-40.526
		c4.07-1.476,7.497-3.771,10.243-7.114c1.147-1.395,2.303-1.43,3.443-0.095c7.732,9.059,10.044,19.402,6.32,30.665
		c-3.669,11.096-11.548,18.029-22.957,20.81C72.269,95.404,70,95.575,67.27,95.578z M86.083,72.502
		c0.307-0.083,0.617-0.154,0.919-0.25c1.344-0.426,2.367-0.031,2.764,1.077c0.391,1.09-0.192,2.102-1.503,2.554
		c-1.416,0.488-2.836,0.968-4.266,1.413c-0.638,0.198-1.08,0.535-1.458,1.11c-3.421,5.204-7.772,9.464-13.08,12.738
		c-0.191,0.118-0.471,0.171-0.52,0.475c7.894,0.044,18.699-4.742,23.865-16.07c4.584-10.051,2.267-21.432-3.451-28.171
		c-3.043,3.28-6.754,5.495-10.959,6.959c-3.452,1.201-6.484,3.13-9.163,5.61c-8.126,7.521-10.941,19.207-7.18,29.612
		c0.309,0.855,0.61,0.916,1.379,0.529c2.314-1.165,4.503-2.516,6.655-3.958c1.026-0.688,1.1-1.396,0.9-2.45
		c-0.428-2.258-0.8-4.529-1.1-6.807c-0.194-1.471,1.042-2.5,2.408-2.104c0.966,0.28,1.291,1.054,1.434,1.957
		c0.277,1.751,0.565,3.501,0.849,5.252c0.366-0.031,0.484-0.289,0.649-0.464c2.487-2.646,4.557-5.585,6.235-8.807
		c1.51-2.9,2.593-5.954,3.404-9.115c0.297-1.157,1.252-1.727,2.309-1.485c1.028,0.235,1.599,1.212,1.384,2.376
		c-0.035,0.188-0.085,0.373-0.129,0.559c-0.597,2.521-1.507,4.935-2.505,7.319c-0.009,0.073-0.019,0.146-0.028,0.219
		C85.958,72.553,86.02,72.527,86.083,72.502z"/>
	<path class="st0" d="M23.611,23.653c2.909,0.723,5.612,1.819,8.099,3.427c1.158,0.749,2.228,1.606,3.28,2.491
		c11.689,9.836,29.06,8.309,38.893-3.402c0.46-0.547,0.534-0.828-0.143-1.287c-2.333-1.581-4.773-2.945-7.361-4.063
		c-0.638-0.276-1.059-0.241-1.601,0.222c-1.871,1.599-3.791,3.14-5.698,4.696c-0.718,0.586-1.511,0.692-2.312,0.211
		c-0.733-0.44-0.994-1.136-0.87-1.976c0.086-0.577,0.453-0.965,0.884-1.317c1.408-1.15,2.81-2.307,4.317-3.545
		c-1.533-0.523-3.006-0.743-4.473-0.938c-5.522-0.734-10.966-0.34-16.322,1.219c-1.695,0.493-2.955-0.345-2.844-1.87
		c0.069-0.949,0.64-1.473,1.527-1.736c2.393-0.709,4.822-1.234,7.306-1.498c0.282-0.03,0.561-0.086,0.999-0.155
		c-0.455-0.421-0.824-0.74-1.169-1.084c-0.813-0.811-0.869-1.967-0.147-2.744c0.713-0.767,1.802-0.848,2.669-0.119
		c1.321,1.111,2.61,2.262,3.895,3.415c0.327,0.293,0.663,0.445,1.107,0.466c6.453,0.306,12.505,2.036,18.17,5.136
		c0.103,0.056,0.218,0.09,0.536,0.218c-0.824-1.473-1.741-2.628-2.719-3.732C62.351,7.47,50.748,4.391,40.352,7.901
		c-0.302,0.102-0.604,0.21-0.914,0.276c-1.047,0.223-2.001-0.294-2.303-1.23c-0.319-0.989,0.166-2.017,1.199-2.409
		c1.885-0.715,3.833-1.232,5.825-1.513c9.127-1.285,17.389,0.798,24.625,6.561c4.499,3.583,7.685,8.16,9.699,13.543
		c0.197,0.528,0.457,0.949,0.887,1.316c2.319,1.979,4.381,4.204,6.223,6.633c0.558,0.735,0.675,1.523,0.189,2.319
		c-0.444,0.728-1.144,0.992-1.982,0.855c-0.61-0.1-1.01-0.511-1.367-0.976c-1.346-1.754-2.834-3.377-4.425-4.913
		c-0.468-0.452-0.664-0.402-1.066,0.08c-5.049,6.055-11.453,9.822-19.251,11.033c-9.243,1.436-17.592-0.807-24.824-6.728
		c-3.522-2.884-7.31-4.966-11.833-5.671c-1.669-0.26-2.242-1.317-1.715-2.92c0.983-2.991,2.378-5.777,4.201-8.345
		c0.823-1.159,1.884-1.442,2.861-0.772c0.958,0.656,1.099,1.808,0.304,2.952C25.462,19.753,24.408,21.6,23.611,23.653z"/>
	<path class="st0" d="M33.269,10.545c-0.036,1.037-0.892,1.852-1.929,1.836c-1.054-0.017-1.943-0.95-1.895-1.99
		c0.047-1.015,0.938-1.854,1.953-1.839C32.47,8.569,33.307,9.46,33.269,10.545z"/>
</g>
</svg>
