<?xml version="1.0" encoding="utf-8"?>
<!-- Generator: Adobe Illustrator 28.0.0, SVG Export Plug-In . SVG Version: 6.00 Build 0)  -->
<svg version="1.1" id="Layer_1" xmlns="http://www.w3.org/2000/svg" xmlns:xlink="http://www.w3.org/1999/xlink" x="0px" y="0px"
	 viewBox="0 0 100 100" style="enable-background:new 0 0 100 100;" xml:space="preserve">
<style type="text/css">
	.st0{fill:#59845E;}
</style>
<g>
	<path class="st0" d="M69.648,89.239c-4.062,0-8.123,0.025-12.184-0.022c-0.792-0.009-0.946,0.217-0.929,0.958
		c0.051,2.286,0.024,4.573,0.017,6.86c-0.004,1.285-0.621,2.033-1.648,2.028c-1.022-0.005-1.626-0.752-1.627-2.046
		c-0.004-5.085-0.005-10.171,0-15.256c0.002-1.668,0.693-2.353,2.353-2.353c5.461-0.001,10.922-0.017,16.382,0.019
		c0.756,0.005,1.06-0.161,0.931-0.938c-0.195-1.18,0.348-1.964,1.278-2.676c3.548-2.715,7.051-5.488,10.561-8.251
		c1.688-1.328,2.982-2.943,3.829-4.954c2.284-5.423,4.635-10.816,6.971-16.217c0.208-0.48,0.303-0.956,0.302-1.479
		c-0.003-4.539-0.013-9.079,0.041-13.618c0.01-0.845-0.31-1.234-1.053-1.475c-1.459-0.474-2.787,0.008-3.677,1.432
		c-0.946,1.513-1.214,3.24-1.45,4.962c-0.176,1.283-0.265,2.578-0.399,3.867c-0.1,0.965-0.684,1.55-1.556,1.574
		c-0.857,0.024-1.733-0.672-1.677-1.591c0.212-3.536,0.351-7.118,2.175-10.302c1.88-3.28,5.516-4.322,8.7-2.57
		c1.415,0.779,2.208,1.893,2.187,3.621c-0.058,4.846-0.029,9.693-0.011,14.539c0.003,0.701-0.141,1.335-0.417,1.973
		c-2.43,5.619-4.858,11.239-7.258,16.871c-0.973,2.284-2.457,4.166-4.377,5.696c-3.387,2.699-6.811,5.352-10.22,8.025
		c-0.187,0.147-0.387,0.283-0.551,0.453c-0.243,0.254-0.163,0.595-0.095,0.871c0.076,0.305,0.403,0.156,0.614,0.158
		c1.297,0.014,2.594,0.002,3.891,0.009c1.267,0.007,1.968,0.653,2.005,1.924c0.038,1.296,0.035,2.594-0.001,3.89
		c-0.015,0.547,0.094,0.845,0.708,0.74c1.972-0.338,2.651,0.938,2.602,2.69c-0.079,2.796-0.016,5.597-0.023,8.395
		c-0.003,1.28-0.631,2.031-1.658,2.017c-1.023-0.014-1.614-0.756-1.617-2.057c-0.006-2.321-0.032-4.642,0.017-6.962
		c0.015-0.698-0.213-0.825-0.853-0.821C77.839,89.253,73.743,89.239,69.648,89.239z M68.127,82.685c-3.071,0-6.143,0-9.214,0
		c-2.371,0-2.334,0.001-2.381,2.352c-0.015,0.766,0.177,0.948,0.943,0.944c6.518-0.035,13.037-0.02,19.555-0.02
		c2.491,0,2.464,0,2.48-2.455c0.004-0.667-0.168-0.844-0.838-0.838C75.158,82.703,71.642,82.685,68.127,82.685z"/>
	<path class="st0" d="M30.337,89.239c-4.096,0-8.191,0.016-12.287-0.016c-0.663-0.005-0.853,0.159-0.84,0.834
		c0.044,2.32,0.021,4.641,0.015,6.962c-0.003,1.292-0.608,2.04-1.63,2.045c-1.029,0.005-1.642-0.739-1.644-2.029
		c-0.006-2.935-0.008-5.87,0-8.806c0.004-1.654,0.63-2.302,2.282-2.252c0.759,0.023,1.076-0.126,1.014-0.973
		c-0.085-1.154-0.034-2.319-0.018-3.48c0.021-1.46,0.686-2.115,2.124-2.119c1.229-0.003,2.458,0.01,3.686-0.01
		c0.24-0.004,0.614,0.181,0.707-0.165c0.091-0.339,0.149-0.75-0.238-1.019c-0.195-0.136-0.381-0.286-0.569-0.433
		c-3.301-2.589-6.606-5.172-9.901-7.769C10.994,68.4,9.44,66.42,8.416,64.003c-2.374-5.606-4.791-11.194-7.207-16.782
		c-0.25-0.577-0.378-1.146-0.377-1.775c0.013-4.915,0.035-9.83-0.009-14.744C0.81,29.198,1.469,28.16,2.66,27.393
		c2.809-1.81,6.336-1.199,8.424,1.443c1.61,2.038,2.054,4.491,2.422,6.958c0.186,1.247,0.279,2.509,0.381,3.766
		c0.093,1.145-0.529,1.986-1.493,2.088c-0.987,0.104-1.657-0.569-1.764-1.782c-0.197-2.242-0.365-4.488-0.988-6.665
		c-0.264-0.923-0.636-1.798-1.283-2.528c-0.652-0.735-1.467-1.096-2.452-1.022c-1.414,0.105-1.818,0.549-1.815,1.964
		C4.1,36.049,4.114,40.486,4.11,44.923c0,0.524,0.101,0.998,0.309,1.478c2.386,5.527,4.766,11.057,7.133,16.592
		c0.757,1.771,1.949,3.2,3.436,4.378c3.528,2.796,7.062,5.585,10.639,8.318c1.01,0.772,1.651,1.605,1.428,2.915
		c-0.119,0.702,0.203,0.82,0.839,0.818c5.495-0.024,10.99-0.015,16.485-0.013c1.651,0,2.339,0.69,2.341,2.365
		c0.005,5.085,0.004,10.171,0,15.256c-0.001,1.291-0.614,2.037-1.64,2.034c-1.025-0.003-1.631-0.749-1.634-2.04
		c-0.006-2.321-0.028-4.642,0.015-6.962c0.012-0.668-0.167-0.843-0.836-0.838C38.528,89.255,34.432,89.239,30.337,89.239z
		 M31.907,85.961c3.071,0,6.143,0,9.214,0c2.327,0,2.294-0.001,2.34-2.288c0.016-0.77-0.149-1.015-0.978-1.011
		c-6.552,0.039-13.105,0.022-19.657,0.022c-2.337,0-2.308,0-2.34,2.39c-0.009,0.696,0.135,0.915,0.876,0.906
		C24.876,85.937,28.392,85.961,31.907,85.961z"/>
	<path class="st0" d="M51.296,21.111c-3.238,5.179-6.476,10.359-9.81,15.692c2.15,0,4.144-0.001,6.137,0
		c2.028,0.001,2.582,0.66,2.199,2.621c-0.418,2.138-0.84,4.274-1.118,6.504c0.177-0.28,0.355-0.56,0.531-0.841
		c3.468-5.546,6.936-11.092,10.405-16.638c0.199-0.317,0.372-0.664,0.627-0.93c0.588-0.613,1.312-0.761,2.038-0.294
		c0.742,0.478,1.011,1.18,0.64,2.036c-0.107,0.248-0.26,0.478-0.404,0.708c-5.253,8.408-10.507,16.815-15.761,25.223
		c-0.09,0.145-0.175,0.293-0.272,0.433c-0.505,0.723-1.172,1.055-2.028,0.706c-0.896-0.366-1.164-1.097-0.983-2.007
		c0.551-2.773,1.111-5.544,1.668-8.316c0.349-1.737,0.668-3.48,1.067-5.205c0.147-0.636-0.026-0.74-0.611-0.733
		c-2.219,0.027-4.438-0.001-6.656,0.017c-0.762,0.006-1.43-0.132-1.848-0.838c-0.426-0.72-0.182-1.365,0.22-2.008
		c5.33-8.52,10.654-17.044,15.984-25.564c0.621-0.992,1.366-1.304,2.198-0.956c0.849,0.355,1.148,1.084,0.92,2.216
		c-1.047,5.21-2.087,10.421-3.139,15.63c-0.254,1.256-1.029,1.875-2.013,1.648c-0.997-0.231-1.424-1.095-1.174-2.343
		c0.447-2.231,0.886-4.463,1.328-6.695C51.394,21.155,51.345,21.133,51.296,21.111z"/>
	<path class="st0" d="M46.721,73.032c0,0.444,0.014,0.888-0.003,1.33c-0.04,1.049-0.678,1.742-1.602,1.762
		c-0.965,0.021-1.682-0.695-1.661-1.797c0.047-2.479-0.185-4.906-1.227-7.188c-2.042-4.472-5.349-7.475-10.19-8.66
		c-0.555-0.136-0.962-0.47-1.353-0.863c-2.312-2.32-4.632-4.632-6.954-6.941c-1.093-1.087-2.264-2.071-3.693-2.699
		c-1.612-0.709-3.213-0.755-4.839-0.004c-0.73,0.337-0.888,0.562-0.221,1.217c4.014,3.947,7.983,7.939,11.963,11.92
		c0.263,0.263,0.548,0.527,0.732,0.844c0.407,0.704,0.3,1.397-0.275,1.959c-0.578,0.565-1.275,0.636-1.966,0.215
		c-0.314-0.192-0.571-0.483-0.836-0.747c-4.469-4.457-8.935-8.917-13.401-13.377C9.904,48.716,9.917,48,11.246,46.775
		c3.286-3.031,7.316-3.478,11.193-1.251c1.402,0.805,2.616,1.841,3.753,2.978c2.002,2.003,4.015,3.994,6.006,6.008
		c0.468,0.473,0.982,0.779,1.625,0.986C41.557,57.985,46.68,64.969,46.721,73.032z"/>
	<path class="st0" d="M53.276,73.035c0.027-8.096,5.183-15.082,12.99-17.567c0.574-0.183,1.026-0.469,1.453-0.883
		c2.668-2.587,5.124-5.399,7.989-7.777c1.953-1.621,4.166-2.687,6.793-2.674c2.738,0.014,4.903,1.255,6.757,3.136
		c0.748,0.759,0.64,1.626-0.24,2.511c-2.261,2.274-4.536,4.534-6.806,6.8c-2.39,2.386-4.783,4.77-7.169,7.16
		c-0.621,0.622-1.324,0.863-2.122,0.422c-0.709-0.392-0.94-1.053-0.778-1.835c0.103-0.495,0.49-0.805,0.826-1.141
		c4.006-4.003,7.999-8.019,12.034-11.992c0.645-0.635,0.551-0.867-0.207-1.219c-1.78-0.825-3.501-0.683-5.209,0.166
		c-1.33,0.662-2.427,1.632-3.469,2.671c-2.102,2.095-4.222,4.173-6.294,6.298c-0.758,0.778-1.602,1.215-2.652,1.554
		c-4.8,1.551-8.089,4.749-9.812,9.515c-0.731,2.021-0.838,4.121-0.822,6.246c0.008,1.026-0.728,1.716-1.656,1.698
		c-0.893-0.018-1.546-0.68-1.601-1.656C53.256,73.992,53.278,73.513,53.276,73.035z"/>
	<path class="st0" d="M81.144,35.16c-0.939,0.008-1.655-0.733-1.65-1.707c0.005-0.912,0.697-1.659,1.572-1.696
		c0.909-0.039,1.685,0.723,1.703,1.67C82.787,34.396,82.079,35.151,81.144,35.16z"/>
	<path class="st0" d="M41.923,3.935c0.006,0.891-0.706,1.612-1.604,1.623c-0.922,0.012-1.622-0.655-1.642-1.563
		c-0.021-0.969,0.67-1.674,1.637-1.668C41.223,2.333,41.917,3.026,41.923,3.935z"/>
	<path class="st0" d="M34.379,8.203c-0.952,0.01-1.625-0.632-1.632-1.556c-0.008-0.919,0.659-1.641,1.547-1.676
		c0.927-0.036,1.712,0.713,1.711,1.633C36.004,7.493,35.291,8.194,34.379,8.203z"/>
	<path class="st0" d="M80.045,20.734c0.017,0.856-0.759,1.643-1.627,1.651c-0.91,0.008-1.623-0.698-1.627-1.611
		c-0.004-0.921,0.678-1.622,1.595-1.638C79.281,19.121,80.027,19.84,80.045,20.734z"/>
	<path class="st0" d="M80.454,28.583c-0.878,0.015-1.598-0.695-1.627-1.604c-0.03-0.92,0.627-1.629,1.54-1.664
		c0.905-0.034,1.669,0.644,1.708,1.517C82.116,27.734,81.343,28.568,80.454,28.583z"/>
	<path class="st0" d="M80.453,38.367c0.889-0.012,1.638,0.722,1.643,1.61c0.005,0.884-0.731,1.62-1.63,1.63
		c-0.922,0.01-1.614-0.679-1.613-1.605C78.854,39.081,79.541,38.379,80.453,38.367z"/>
	<path class="st0" d="M53.144,4.199c-0.929-0.032-1.647-0.817-1.595-1.746c0.052-0.925,0.751-1.557,1.677-1.516
		c0.916,0.041,1.559,0.735,1.539,1.662C54.745,3.5,54.007,4.228,53.144,4.199z"/>
	<path class="st0" d="M57.909,3.768c0.049-0.887,0.852-1.603,1.716-1.529c0.907,0.077,1.563,0.833,1.507,1.739
		c-0.056,0.922-0.774,1.551-1.714,1.502C58.51,5.432,57.859,4.693,57.909,3.768z"/>
	<path class="st0" d="M72.36,10.317c-0.007,0.883-0.733,1.635-1.596,1.654c-0.875,0.019-1.701-0.824-1.67-1.705
		c0.031-0.886,0.766-1.572,1.67-1.559C71.685,8.72,72.368,9.408,72.36,10.317z"/>
	<path class="st0" d="M24.878,13.661c0.874,0.063,1.603,0.891,1.527,1.734c-0.079,0.873-0.897,1.579-1.757,1.516
		c-0.903-0.066-1.562-0.83-1.501-1.737C23.209,14.282,23.992,13.597,24.878,13.661z"/>
	<path class="st0" d="M46.632,4.206c-0.908-0.023-1.606-0.745-1.598-1.653c0.008-0.918,0.714-1.611,1.63-1.599
		c0.903,0.011,1.608,0.729,1.61,1.641C48.275,3.48,47.513,4.228,46.632,4.206z"/>
	<path class="st0" d="M65.511,8.121c-0.917,0.027-1.648-0.666-1.659-1.573c-0.011-0.89,0.709-1.657,1.582-1.687
		c0.868-0.029,1.639,0.711,1.664,1.6C67.124,7.363,66.425,8.094,65.511,8.121z"/>
	<path class="st0" d="M29.125,12.062c-0.899,0.015-1.632-0.68-1.657-1.57c-0.024-0.859,0.709-1.647,1.569-1.688
		c0.914-0.043,1.713,0.726,1.706,1.643C30.736,11.339,30.027,12.047,29.125,12.062z"/>
	<path class="st0" d="M21.543,22.567c-0.868,0.004-1.632-0.745-1.656-1.623c-0.024-0.89,0.699-1.621,1.611-1.628
		c0.903-0.007,1.642,0.703,1.66,1.597C23.175,21.774,22.405,22.563,21.543,22.567z"/>
	<path class="st0" d="M20.5,33.614c-0.016,0.89-0.738,1.59-1.638,1.588c-0.948-0.002-1.675-0.758-1.629-1.694
		c0.043-0.877,0.814-1.591,1.684-1.559C19.792,31.981,20.516,32.742,20.5,33.614z"/>
	<path class="st0" d="M19.571,38.43c0.94,0.027,1.644,0.79,1.594,1.728c-0.046,0.873-0.832,1.583-1.695,1.532
		c-0.87-0.052-1.603-0.843-1.565-1.69C17.945,39.12,18.703,38.405,19.571,38.43z"/>
	<path class="st0" d="M76.749,15.074c0.025,0.885-0.679,1.646-1.552,1.679c-0.912,0.035-1.641-0.623-1.685-1.522
		c-0.047-0.953,0.663-1.739,1.579-1.751C75.959,13.469,76.724,14.204,76.749,15.074z"/>
	<path class="st0" d="M19.514,28.747c-0.862,0-1.631-0.77-1.638-1.641c-0.007-0.884,0.734-1.601,1.644-1.591
		c0.932,0.01,1.62,0.694,1.619,1.607C21.137,28.016,20.406,28.747,19.514,28.747z"/>
</g>
</svg>
