<?xml version="1.0" encoding="utf-8"?>
<!-- Generator: Adobe Illustrator 28.0.0, SVG Export Plug-In . SVG Version: 6.00 Build 0)  -->
<svg version="1.1" id="Layer_1" xmlns="http://www.w3.org/2000/svg" xmlns:xlink="http://www.w3.org/1999/xlink" x="0px" y="0px"
	 viewBox="0 0 100 100" style="enable-background:new 0 0 100 100;" xml:space="preserve">
<style type="text/css">
	.st0{fill:#59845E;}
</style>
<g>
	<path class="st0" d="M62.632,99.056c-4.056,0-8.113-0.012-12.169,0.009c-0.907,0.005-1.65-0.2-1.969-1.13
		c-0.145-0.422-0.43-0.32-0.711-0.303c-3.982,0.241-7.964,0.481-11.945,0.729c-3.587,0.223-7.172,0.468-10.759,0.676
		c-1.381,0.08-1.985-0.534-1.994-1.935c-0.008-1.385-0.002-2.77-0.002-4.155c0-2.98,1.664-5.011,4.637-5.577
		c3.492-0.666,6.989-1.311,10.493-1.909c0.613-0.105,0.716-0.334,0.713-0.883c-0.021-3.759-0.023-7.519,0.003-11.278
		c0.004-0.513-0.202-0.863-0.49-1.231c-2.697-3.455-5.385-6.917-8.078-10.375c-2.079-2.671-1.855-5.111,0.671-7.381
		c4.12-3.702,8.234-7.412,12.357-11.11c0.423-0.379,0.769-0.801,1.059-1.288c1.311-2.206,2.63-4.407,3.956-6.605
		c0.91-1.509,2.281-1.495,3.202,0.026c0.817,1.351,1.699,2.67,2.424,4.07c1.203,2.324,2.906,4.177,4.871,5.879
		c3.489,3.021,6.884,6.151,10.31,9.245c2.174,1.963,2.422,4.559,0.637,6.875c-2.757,3.575-5.534,7.135-8.317,10.69
		c-0.32,0.409-0.462,0.817-0.459,1.341c0.02,3.693,0.038,7.387-0.013,11.08c-0.01,0.725,0.239,0.936,0.877,1.078
		c3.435,0.766,6.862,1.57,10.291,2.361c1.494,0.345,2.74,1.095,3.712,2.283c0.647,0.791,0.996,1.685,0.98,2.725
		c-0.021,1.352-0.001,2.704-0.006,4.056c-0.006,1.492-0.537,2.035-2.013,2.036C70.81,99.059,66.721,99.056,62.632,99.056z
		 M48.414,41.506c-1.101,1.641-1.842,3.158-3.176,4.32c-4.101,3.574-8.112,7.252-12.153,10.894
		c-1.194,1.076-1.253,1.689-0.275,2.948c2.869,3.697,5.746,7.388,8.619,11.081c0.324,0.417,0.654,0.826,0.653,1.4
		c-0.003,4.815,0.005,9.63-0.007,14.445c-0.002,0.864-0.463,1.424-1.326,1.595c-1.033,0.205-2.07,0.391-3.107,0.579
		c-3.045,0.551-6.093,1.082-9.134,1.656c-1.702,0.321-2.258,1.039-2.258,2.751c0,0.594,0.036,1.19-0.01,1.78
		c-0.048,0.617,0.095,0.839,0.79,0.785c2.497-0.195,5.001-0.306,7.502-0.46c4.409-0.27,8.817-0.555,13.227-0.813
		c0.5-0.029,0.689-0.182,0.665-0.702c-0.04-0.856-0.033-1.715-0.003-2.572c0.035-0.992,0.626-1.612,1.611-1.628
		c1.912-0.031,3.825,0,5.738-0.019c0.411-0.004,0.548,0.09,0.575,0.538c0.157,2.64,0.172,2.639-2.425,2.639
		c-0.033,0-0.066,0-0.099,0c-2.245,0-2.211,0.001-2.259,2.214c-0.016,0.755,0.162,0.975,0.952,0.97
		c6.332-0.036,12.664-0.02,18.996-0.02c2.235,0,2.161-0.003,2.262-2.219c0.059-1.289-0.561-1.956-1.597-2.418
		c-0.327-0.146-0.688-0.222-1.039-0.303c-3.847-0.885-7.697-1.759-11.542-2.65c-1.34-0.31-1.68-0.758-1.681-2.128
		c-0.002-4.485,0.012-8.97-0.013-13.455c-0.004-0.77,0.205-1.387,0.68-1.991c2.849-3.629,5.673-7.278,8.502-10.922
		c1.114-1.435,1.071-1.96-0.267-3.166c-3.698-3.333-7.378-6.688-11.113-9.979c-1.448-1.276-2.754-2.63-3.628-4.368
		c-0.095-0.189-0.12-0.521-0.491-0.508c0,1.205,0.03,2.392-0.013,3.578c-0.02,0.552,0.182,0.89,0.589,1.243
		c3.339,2.893,6.664,5.802,9.978,8.724c1.735,1.53,1.722,3.61-0.013,5.119c-1.543,1.341-3.101,2.664-4.658,3.988
		c-0.379,0.322-0.7,0.681-0.988,1.092c-3.244,4.619-9.754,4.607-12.978-0.021c-0.267-0.383-0.554-0.729-0.909-1.03
		c-1.508-1.28-3.009-2.568-4.515-3.85c-1.99-1.694-2.013-3.723-0.05-5.442c3.274-2.867,6.551-5.731,9.828-8.595
		c0.294-0.257,0.589-0.464,0.573-0.952C48.387,44.353,48.414,43.072,48.414,41.506z M49.973,65.804
		c2.586,0.011,4.738-2.096,4.771-4.673c0.034-2.631-2.1-4.809-4.722-4.82c-2.589-0.011-4.737,2.092-4.77,4.671
		C45.218,63.612,47.353,65.792,49.973,65.804z M42.207,59.829c0.748-3.726,3.48-6.323,7.025-6.654
		c2.083-0.195,3.971,0.365,5.628,1.664c1.633,1.28,2.542,3.002,2.978,5.089c0.65-0.549,1.176-1.049,1.758-1.469
		c0.579-0.417,0.561-0.691,0.016-1.16c-3.019-2.598-6.02-5.218-8.992-7.87c-0.522-0.466-0.797-0.387-1.272,0.037
		c-2.505,2.235-5.053,4.423-7.566,6.65c-0.652,0.577-1.883,1.121-1.764,1.788c0.126,0.709,1.245,1.242,1.934,1.847
		C41.994,59.79,42.071,59.79,42.207,59.829z"/>
	<path class="st0" d="M39.844,8.026c0.843-0.076,1.744,0.021,2.591,0.258c0.703,0.197,0.878-0.085,1.129-0.626
		c1.175-2.528,2.903-4.607,5.169-6.248c0.873-0.632,1.654-0.633,2.524-0.006c2.298,1.658,4.034,3.775,5.211,6.339
		c0.249,0.543,0.451,0.69,1.08,0.553c2.09-0.453,4.188-0.355,6.271,0.14c0.906,0.215,1.421,0.754,1.605,1.657
		c0.263,1.296,0.47,2.597,0.388,3.923c-0.029,0.469,0.108,0.669,0.592,0.815c2.044,0.615,3.867,1.639,5.435,3.107
		c0.673,0.631,0.892,1.312,0.566,2.214c-1.97,5.464-5.999,8.583-11.463,10.003c-3.118,0.81-6.195,0.506-9.208-0.66
		c-1.116-0.432-2.344-0.432-3.453,0.011c-7.707,3.079-17.237-0.841-20.355-8.409c-0.83-2.014-0.728-2.408,0.966-3.792
		c1.315-1.075,2.782-1.882,4.405-2.365c0.666-0.198,0.957-0.46,0.889-1.206c-0.111-1.222,0.144-2.425,0.39-3.622
		c0.194-0.947,0.742-1.494,1.688-1.695C37.428,8.17,38.594,7.973,39.844,8.026z M45.145,15.33c0.105,3.628,1.282,7.183,4.222,10.036
		c0.485,0.471,0.785,0.441,1.276-0.011c5.591-5.151,5.599-15.24,0.023-20.403c-0.542-0.502-0.842-0.466-1.349,0.016
		C46.454,7.694,45.182,11.066,45.145,15.33z M43.994,23.559c0.021-0.127,0.04-0.164,0.029-0.186
		c-1.772-3.615-2.433-7.405-1.785-11.396c0.076-0.466-0.133-0.54-0.516-0.612c-1.079-0.204-2.159-0.196-3.247-0.135
		c-0.669,0.037-1.002,0.297-1.1,1.032C36.761,16.893,39.586,21.777,43.994,23.559z M55.888,23.581
		c4.475-1.643,7.502-6.937,6.709-11.515c-0.099-0.574-0.358-0.758-0.874-0.809c-1.119-0.11-2.226-0.077-3.341,0.096
		c-0.558,0.087-0.684,0.254-0.595,0.821c0.357,2.262,0.254,4.514-0.236,6.757C57.202,20.53,56.588,22.031,55.888,23.581z
		 M55.685,27.142c0.263,0.304,0.545,0.243,0.796,0.253c4.262,0.168,7.864-1.289,10.74-4.448c0.834-0.916,2.058-2.055,1.735-3.128
		c-0.317-1.053-1.935-1.417-3.102-1.87c-0.03-0.012-0.065-0.013-0.095-0.026c-0.346-0.142-0.569-0.14-0.732,0.306
		C63.391,22.702,60.164,25.532,55.685,27.142z M44.246,27.206c-4.394-1.67-7.625-4.495-9.274-8.958
		c-0.151-0.409-0.321-0.477-0.712-0.336c-0.995,0.357-1.914,0.85-2.812,1.404c-0.573,0.353-0.604,0.683-0.298,1.263
		c1.679,3.171,4.307,5.16,7.669,6.24C40.583,27.385,42.39,27.593,44.246,27.206z"/>
</g>
</svg>
