<?xml version="1.0" encoding="UTF-8"?>
<svg xmlns="http://www.w3.org/2000/svg" version="1.1" viewBox="0 0 100 100">
  <defs>
    <style>
      .cls-1 {
        fill: #223a5e;
      }
    </style>
  </defs>
  <!-- Generator: Adobe Illustrator 28.7.1, SVG Export Plug-In . SVG Version: 1.2.0 Build 142)  -->
  <g>
    <g id="Layer_1">
      <g>
        <path class="cls-1" d="M.8,62.1c.4-.8.4-1.7.5-2.5,1-5.3,3.2-10,6.6-14.2.5-.6.8-1.2.9-1.9.5-2.8,1.4-5.6,2.5-8.2.5-1.3,1.6-1.8,2.6-1.3,1,.4,1.4,1.5.9,2.7-.9,2.1-1.6,4.2-2.1,6.5-.1.6,0,.7.5.8,12.9,2.5,21.3,10,25.2,22.6,1.5,5,1.4,10.1.5,15.3-.7,3.7-.2,7.3,1.1,10.7.2.5.4,1,.4,1.6,0,.9-.6,1.6-1.7,1.9-8.3,1.8-16.2.4-23.3-4.2-8.5-5.4-13.2-13.3-14.4-23.3,0-.2,0-.3-.2-.4v-5.9ZM13.5,62.4c0,0-.1,0-.2,0,0,0,0,.1,0,.2,0,0,0,.1,0,.2,2,6.8,5.6,12.6,10.7,17.5.9.9,1,2.1.2,2.9-.8.8-1.9.8-2.9-.1-1.2-1.1-2.3-2.3-3.3-3.6-.7-.9-1.4-1.8-2.2-2.7-.1.5-.2.9-.3,1.3-.3,1.3-1.2,1.9-2.3,1.7-1.1-.2-1.7-1.2-1.4-2.5.3-1.5.6-3.1.9-4.6.1-.6,0-1.1-.2-1.6-2.3-4.6-3.8-9.4-4.3-14.5-.1-1.3-.2-2.7-.3-4-.1,0-.2,0-.2.1,0,.2-.2.3-.3.5-2.8,5.7-3.6,11.8-2.2,18,3.2,13.9,15.7,22.8,29.9,21.4.7,0,.7-.3.6-.9-1-3.8-1.2-7.6-.5-11.4.8-4.2.8-8.4-.4-12.4-3.2-11.1-10.5-17.8-21.8-20.2-.9-.2-1.1,0-1.2.9-.2,2.8-.1,5.6.2,8.4,0,.5.3.8.8,1,2.2.8,4.4,1.6,6.6,2.5,1.5.6,2.1,1.5,1.7,2.7-.4,1.1-1.5,1.5-3,.9-1.6-.6-3.2-1.2-4.8-1.7Z"/>
        <path class="cls-1" d="M67.3,95.6c-1.3,0-3,0-4.7-.4-.6-.1-1.2,0-1.9.1-2.8,1-5.8,1.7-8.7,2-1.2.1-2.1-.5-2.3-1.6-.2-1.1.5-2,1.7-2.2,2.3-.4,4.5-.8,6.7-1.4.7-.2.7-.4.5-1-6.1-16.6,2.2-34.5,18.8-40.5,4.1-1.5,7.5-3.8,10.2-7.1,1.1-1.4,2.3-1.4,3.4,0,7.7,9.1,10,19.4,6.3,30.7-3.7,11.1-11.5,18-23,20.8-2.2.5-4.5.7-7.2.7ZM86.1,72.5c.3,0,.6-.2.9-.2,1.3-.4,2.4,0,2.8,1.1.4,1.1-.2,2.1-1.5,2.6-1.4.5-2.8,1-4.3,1.4-.6.2-1.1.5-1.5,1.1-3.4,5.2-7.8,9.5-13.1,12.7-.2.1-.5.2-.5.5,7.9,0,18.7-4.7,23.9-16.1,4.6-10.1,2.3-21.4-3.5-28.2-3,3.3-6.8,5.5-11,7-3.5,1.2-6.5,3.1-9.2,5.6-8.1,7.5-10.9,19.2-7.2,29.6.3.9.6.9,1.4.5,2.3-1.2,4.5-2.5,6.7-4,1-.7,1.1-1.4.9-2.4-.4-2.3-.8-4.5-1.1-6.8-.2-1.5,1-2.5,2.4-2.1,1,.3,1.3,1.1,1.4,2,.3,1.8.6,3.5.8,5.3.4,0,.5-.3.6-.5,2.5-2.6,4.6-5.6,6.2-8.8,1.5-2.9,2.6-6,3.4-9.1.3-1.2,1.3-1.7,2.3-1.5,1,.2,1.6,1.2,1.4,2.4,0,.2,0,.4-.1.6-.6,2.5-1.5,4.9-2.5,7.3,0,0,0,.1,0,.2,0,0,.1,0,.2,0Z"/>
        <path class="cls-1" d="M23.6,23.7c2.9.7,5.6,1.8,8.1,3.4,1.2.7,2.2,1.6,3.3,2.5,11.7,9.8,29.1,8.3,38.9-3.4.5-.5.5-.8-.1-1.3-2.3-1.6-4.8-2.9-7.4-4.1-.6-.3-1.1-.2-1.6.2-1.9,1.6-3.8,3.1-5.7,4.7-.7.6-1.5.7-2.3.2-.7-.4-1-1.1-.9-2,0-.6.5-1,.9-1.3,1.4-1.1,2.8-2.3,4.3-3.5-1.5-.5-3-.7-4.5-.9-5.5-.7-11-.3-16.3,1.2-1.7.5-3-.3-2.8-1.9,0-.9.6-1.5,1.5-1.7,2.4-.7,4.8-1.2,7.3-1.5.3,0,.6,0,1-.2-.5-.4-.8-.7-1.2-1.1-.8-.8-.9-2-.1-2.7.7-.8,1.8-.8,2.7-.1,1.3,1.1,2.6,2.3,3.9,3.4.3.3.7.4,1.1.5,6.5.3,12.5,2,18.2,5.1.1,0,.2,0,.5.2-.8-1.5-1.7-2.6-2.7-3.7-7.3-8.2-18.9-11.3-29.3-7.8-.3.1-.6.2-.9.3-1,.2-2-.3-2.3-1.2-.3-1,.2-2,1.2-2.4,1.9-.7,3.8-1.2,5.8-1.5,9.1-1.3,17.4.8,24.6,6.6,4.5,3.6,7.7,8.2,9.7,13.5.2.5.5.9.9,1.3,2.3,2,4.4,4.2,6.2,6.6.6.7.7,1.5.2,2.3-.4.7-1.1,1-2,.9-.6,0-1-.5-1.4-1-1.3-1.8-2.8-3.4-4.4-4.9-.5-.5-.7-.4-1.1,0-5,6.1-11.5,9.8-19.3,11-9.2,1.4-17.6-.8-24.8-6.7-3.5-2.9-7.3-5-11.8-5.7-1.7-.3-2.2-1.3-1.7-2.9,1-3,2.4-5.8,4.2-8.3.8-1.2,1.9-1.4,2.9-.8,1,.7,1.1,1.8.3,3-1.2,1.8-2.3,3.6-3.1,5.7Z"/>
        <path class="cls-1" d="M33.3,10.5c0,1-.9,1.9-1.9,1.8-1.1,0-1.9-.9-1.9-2,0-1,.9-1.9,2-1.8,1.1,0,1.9.9,1.9,2Z"/>
      </g>
    </g>
  </g>
</svg>