<?xml version="1.0" encoding="UTF-8"?>
<svg xmlns="http://www.w3.org/2000/svg" version="1.1" viewBox="0 0 100 100">
  <defs>
    <style>
      .cls-1 {
        fill: #223a5e;
      }
    </style>
  </defs>
  <!-- Generator: Adobe Illustrator 28.7.1, SVG Export Plug-In . SVG Version: 1.2.0 Build 142)  -->
  <g>
    <g id="Layer_1">
      <path class="cls-1" d="M70.3,73.6c1.4-7.2,3.1-12.5,7.2-14.9,4-2.4,9.1-13.8,11.6-12.2,2.5,1.6,2,5.5.4,8.7-1.6,3.2-4.4,7.6-4.4,7.6l12.1,4.7s2.9,1.3,2.7,4.5c-.2,3.2-6.8,2.7-6.8,2.7,0,0,6.2,3.5,5.6,6.9s-7.5,1.1-7.5,1.1c0,0,5.4,4.9,3.9,8.4-1.4,3.5-7.5-1.2-7.5-1.2,0,0,5,5.1,3.5,8.1-1.5,3-7.3-2.7-7.3-2.7,0,0-17.1-3.8-13.5-21.7ZM35.2,0C15.8,0,0,22.4,0,50s15.8,50,35.2,50,35.2-22.4,35.2-50c0-27.6-15.7-50-35.2-50ZM21,33c3.4,0,6.1,3.8,6.1,8.6s-2.7,8.6-6.1,8.6-6.1-3.8-6.1-8.6,2.7-8.6,6.1-8.6ZM35.2,84.3c-8.3,0-15.9-7-19.2-17.8l5-3.1c2.4,8,8,13.1,14.1,13.1s11.7-5.2,14.1-13.1l5,3.1c-3.2,10.9-10.7,17.8-19.1,17.8ZM49.5,50.2c-3.4,0-6.1-3.8-6.1-8.6s2.7-8.6,6.1-8.6,6.1,3.8,6.1,8.6-2.7,8.6-6.1,8.6Z"/>
    </g>
  </g>
</svg>