<?xml version="1.0" encoding="utf-8"?>
<!-- Generator: Adobe Illustrator 28.0.0, SVG Export Plug-In . SVG Version: 6.00 Build 0)  -->
<svg version="1.1" id="Layer_1" xmlns="http://www.w3.org/2000/svg" xmlns:xlink="http://www.w3.org/1999/xlink" x="0px" y="0px"
	 viewBox="0 0 100 100" style="enable-background:new 0 0 100 100;" xml:space="preserve">
<style type="text/css">
	.st0{fill:#59845E;}
</style>
<g>
	<path class="st0" d="M98.455,97.311c-0.469,0.868-1.186,1.153-2.174,1.152c-16.336-0.022-32.671-0.016-49.007-0.018
		c-0.313,0-0.642,0.015-0.938-0.067c-1.088-0.301-1.523-1.592-0.853-2.505c0.185-0.251,0.426-0.462,0.649-0.684
		C62.5,78.82,78.867,62.452,95.235,46.084c0.022-0.022,0.046-0.043,0.068-0.065c1.234-1.227,2.093-1.176,3.152,0.187
		C98.455,63.241,98.455,80.276,98.455,97.311z M50.903,95.221c0.148,0,0.324,0,0.499,0c14.35,0,28.701-0.006,43.051,0.017
		c0.715,0.001,0.789-0.253,0.789-0.863c-0.016-14.288-0.012-28.576-0.02-42.863c0-0.224,0.136-0.5-0.004-0.597
		C80.44,65.693,65.686,80.442,50.903,95.221z"/>
	<path class="st0" d="M98.455,10.244C93.1,15.613,87.748,20.985,82.39,26.351c-4.257,4.264-8.528,8.514-12.772,12.79
		c-0.663,0.668-1.383,1.147-2.292,1.411c-1.237,0.358-2.449,0.801-3.671,1.209c-0.712,0.238-1.393,0.208-1.914-0.379
		c-0.362-0.408-0.579-0.287-0.894,0.04c-0.897,0.931-1.849,1.811-2.726,2.76c-0.409,0.442-0.651,0.422-1.024-0.017
		c-0.527-0.621-1.54-1.183-1.552-1.786c-0.011-0.579,0.986-1.18,1.547-1.765c0.327-0.341,0.654-0.686,1.006-1.001
		c0.581-0.52,1.144-0.963,0.236-1.746c-0.42-0.363-0.278-0.999-0.104-1.526c0.484-1.463,0.971-2.924,1.453-4.387
		c0.163-0.493,0.475-0.876,0.837-1.238c9.461-9.455,18.918-18.913,28.377-28.369c0.277-0.277,0.568-0.54,0.852-0.81
		c0.379,0,0.757,0,1.136,0c1.267,0.939,2.296,2.13,3.394,3.243c1.408,1.427,2.94,2.736,4.177,4.328
		C98.455,9.487,98.455,9.865,98.455,10.244z M94.521,9.613c-0.148-0.158-0.27-0.296-0.4-0.427c-1.068-1.072-2.158-2.123-3.195-3.225
		c-0.418-0.444-0.655-0.454-1.091-0.006c-1.936,1.987-3.912,3.935-5.874,5.896c-3.389,3.388-6.77,6.784-10.176,10.155
		c-0.408,0.404-0.442,0.62-0.009,1.028c1.123,1.06,2.203,2.166,3.278,3.275c0.31,0.32,0.489,0.333,0.821,0
		c5.406-5.429,10.827-10.842,16.243-16.26C94.25,9.919,94.371,9.777,94.521,9.613z M70.997,24.849
		c-0.154,0.142-0.291,0.26-0.42,0.388c-1.918,1.916-3.823,3.846-5.761,5.742c-0.379,0.371-0.303,0.566,0.029,0.887
		c1.109,1.075,2.201,2.168,3.277,3.275c0.314,0.323,0.505,0.43,0.885,0.041c1.895-1.939,3.814-3.855,5.751-5.752
		c0.376-0.368,0.317-0.563-0.024-0.892c-1.111-1.073-2.191-2.178-3.284-3.269C71.32,25.138,71.179,25.017,70.997,24.849z
		 M62.368,34.175c-0.904,2.633-0.973,2.729,0.723,3.948c0.927,0.666,1.818-0.413,2.77-0.484
		C64.654,36.441,63.523,35.32,62.368,34.175z"/>
	<path class="st0" d="M1.545,45.109c0-11.102-0.001-22.204,0-33.305c0.001-4.391,2.665-7.04,7.079-7.042
		C9.95,4.76,11.274,4.75,12.599,4.764c1.256,0.014,1.841,0.599,1.849,1.864c0.014,2.271,0.05,4.543-0.019,6.812
		c-0.026,0.857,0.226,1.021,1.041,1.02c18.135-0.025,36.27-0.009,54.405-0.046c0.995-0.002,1.183,0.279,1.152,1.194
		c-0.07,2.064-0.022,2.065-2.134,2.065c-17.788,0-35.576,0.006-53.364-0.018c-0.836-0.001-1.1,0.17-1.098,1.066
		c0.029,18.23,0.022,36.459,0.022,54.689c0,2.032-0.399,2.43-2.432,2.431c-1.198,0.001-2.397-0.006-3.595,0.002
		c-2.194,0.014-3.652,1.305-3.648,3.221c0.003,1.907,1.491,3.243,3.651,3.244c7.475,0.006,14.95,0.002,22.424,0.002
		c6.592,0,13.183,0.012,19.775-0.017c0.743-0.003,1.036,0.123,1.018,0.952c-0.051,2.296-0.011,2.297-2.309,2.297
		c-13.625,0-27.25,0.003-40.875-0.002c-3.608-0.001-6.164-2.038-6.813-5.432c-0.1-0.521-0.098-1.066-0.098-1.6
		C1.544,67.375,1.545,56.242,1.545,45.109z M4.771,73.476c1.794-1.022,3.609-0.922,5.397-0.858c0.851,0.03,1.076-0.193,1.075-1.064
		c-0.027-20.372-0.021-40.743-0.024-61.115c0-0.783,0.263-1.834-0.135-2.28c-0.467-0.524-1.54-0.158-2.348-0.164
		c-2.797-0.02-3.966,1.159-3.966,3.951c0,20.151,0,40.302,0,60.452C4.771,72.711,4.771,73.023,4.771,73.476z"/>
	<path class="st0" d="M42.075,33.857c2.256,2.824,4.373,5.476,6.493,8.126c1.142,1.428,2.291,2.85,3.43,4.28
		c0.217,0.272,0.391,0.516,0.819,0.515c7.028-0.015,14.056-0.011,21.264-0.011c-0.797-1.009-1.477-1.931-2.226-2.795
		c-0.407-0.47-0.53-0.78,0.096-1.142c0.699-0.404,1.25-1.448,1.953-1.305c0.598,0.122,1.025,1.11,1.517,1.723
		c1.007,1.253,1.993,2.523,3.018,3.761c0.447,0.54,0.653,1.122,0.651,1.817c-0.01,3.375-0.02,6.75,0.009,10.124
		c0.005,0.595-0.171,0.783-0.747,0.727c-0.808-0.079-1.852,0.331-2.367-0.164c-0.476-0.458-0.127-1.499-0.134-2.282
		c-0.018-2.176-0.029-4.353,0.009-6.529c0.01-0.59-0.158-0.725-0.733-0.723C68.064,50,60.999,50,53.934,49.978
		c-0.593-0.002-0.725,0.157-0.722,0.733c0.024,4.889,0.027,9.777-0.002,14.666c-0.004,0.647,0.202,0.766,0.796,0.762
		c4.289-0.024,8.579,0.008,12.868-0.032c0.766-0.007,0.935,0.219,0.923,0.946c-0.038,2.308-0.008,2.308-2.276,2.308
		c-12.994,0-25.989,0-38.983,0c-1.963,0-2.385-0.423-2.386-2.386c-0.001-5.961,0.009-11.922-0.011-17.883
		c-0.003-0.863,0.223-1.569,0.772-2.25c4.076-5.055,8.133-10.125,12.171-15.21c0.559-0.703,1.182-1.029,2.09-1.024
		c5.488,0.026,10.976,0.025,16.464-0.003c0.659-0.003,0.9,0.155,0.822,0.824c-0.09,0.775,0.325,1.79-0.158,2.276
		c-0.485,0.487-1.497,0.14-2.276,0.144C50.117,33.866,46.209,33.857,42.075,33.857z M50,58.046c0-2.46-0.005-4.92,0.005-7.379
		c0.002-0.41,0.022-0.69-0.563-0.688C42.283,50,35.125,49.997,27.966,49.982c-0.46-0.001-0.582,0.126-0.581,0.582
		c0.016,4.983,0.017,9.965-0.001,14.948c-0.002,0.515,0.17,0.638,0.65,0.624c1.071-0.031,2.147-0.06,3.215,0.007
		c0.757,0.048,1.01-0.122,0.996-0.948c-0.056-3.31-0.027-6.622-0.021-9.933c0.003-1.482,0.573-2.043,2.072-2.045
		c2.901-0.004,5.803-0.003,8.704-0.001c1.624,0.001,2.139,0.514,2.141,2.149c0.005,3.343,0.015,6.686-0.011,10.028
		c-0.005,0.579,0.15,0.77,0.739,0.746c1.102-0.045,2.209-0.053,3.31,0.002c0.648,0.033,0.851-0.132,0.838-0.811
		C49.973,62.903,50,60.475,50,58.046z M48.231,46.733c-3.226-4.033-6.356-7.948-9.535-11.922c-3.185,3.983-6.32,7.903-9.535,11.922
		C35.553,46.733,41.784,46.733,48.231,46.733z M35.451,61.263c0,1.384,0.032,2.77-0.015,4.153c-0.021,0.606,0.189,0.734,0.75,0.723
		c1.698-0.034,3.398-0.03,5.097-0.001c0.492,0.008,0.641-0.126,0.637-0.629c-0.024-2.8-0.025-5.601,0.001-8.401
		c0.005-0.544-0.165-0.686-0.691-0.677c-1.699,0.031-3.398,0.031-5.097,0c-0.528-0.01-0.709,0.13-0.694,0.679
		C35.476,58.493,35.451,59.879,35.451,61.263z"/>
	<path class="st0" d="M69.368,58.04c0.001,1.041,0.023,2.082-0.005,3.122c-0.031,1.161-0.604,1.721-1.778,1.731
		c-2.05,0.017-4.1,0.019-6.15-0.002c-1.13-0.012-1.739-0.624-1.752-1.774c-0.023-2.05-0.027-4.1,0.002-6.15
		c0.016-1.124,0.658-1.735,1.796-1.746c2.05-0.019,4.1-0.021,6.15,0.001c1.096,0.012,1.696,0.605,1.729,1.695
		C69.392,55.957,69.367,56.999,69.368,58.04z M66.135,58.131c0-1.688,0-1.688-1.726-1.688c-0.031,0-0.063,0-0.094,0
		c-1.408,0-1.408,0-1.408,1.45c0,1.776,0,1.776,1.738,1.776C66.135,59.668,66.135,59.668,66.135,58.131z"/>
	<path class="st0" d="M88.78,37.132c0,3.465-0.015,6.93,0.013,10.395c0.005,0.628-0.114,0.924-0.813,0.857
		c-0.775-0.074-1.801,0.232-2.272-0.161c-0.503-0.421-0.15-1.479-0.151-2.257c-0.013-6.426,0.002-12.852-0.022-19.278
		c-0.003-0.691,0.104-1.032,0.895-0.938c0.742,0.089,1.722-0.222,2.188,0.153c0.496,0.399,0.149,1.414,0.153,2.158
		C88.791,31.084,88.78,34.108,88.78,37.132z"/>
	<path class="st0" d="M17.684,24.72c0-0.694-0.028-1.388,0.006-2.08c0.054-1.089,0.635-1.69,1.729-1.722
		c1.386-0.041,2.774,0.005,4.161-0.022c0.475-0.009,0.561,0.187,0.584,0.612c0.141,2.594,0.151,2.617-2.421,2.621
		c-0.665,0.001-0.906,0.191-0.837,0.853c0.049,0.468-0.037,0.95,0.02,1.416c0.093,0.758-0.131,1.028-0.95,1.009
		c-2.295-0.052-2.296-0.013-2.296-2.309c0-0.126,0-0.252,0-0.378C17.682,24.72,17.683,24.72,17.684,24.72z"/>
	<path class="st0" d="M21.514,75.841c-0.662,0-1.325,0.019-1.986-0.005c-1.203-0.042-1.813-0.626-1.84-1.808
		c-0.031-1.355,0.007-2.711-0.015-4.067c-0.007-0.443,0.132-0.585,0.587-0.614c2.627-0.167,2.647-0.18,2.642,2.404
		c-0.001,0.637,0.138,0.886,0.825,0.865c0.774-0.025,1.803-0.364,2.269,0.139c0.496,0.536,0.083,1.565,0.167,2.372
		c0.064,0.612-0.196,0.762-0.757,0.723C22.778,75.808,22.145,75.841,21.514,75.841z"/>
	<path class="st0" d="M88.779,79.142c0,2.523,0.006,5.045-0.002,7.568c-0.004,1.479-0.586,2.057-2.073,2.059
		c-5.108,0.005-10.216-0.002-15.325,0.007c-0.819,0.001-1.517-0.199-1.857-1.01c-0.341-0.811,0-1.442,0.586-2.025
		c5.225-5.21,10.442-10.427,15.653-15.652c0.585-0.586,1.22-0.918,2.028-0.57c0.808,0.348,1.001,1.05,0.996,1.867
		C88.771,73.971,88.779,76.556,88.779,79.142z M85.549,75.328c-3.396,3.386-6.847,6.828-10.242,10.213
		c3.113,0,6.381-0.011,9.648,0.011c0.547,0.004,0.601-0.243,0.6-0.685C85.544,81.627,85.549,78.388,85.549,75.328z"/>
</g>
</svg>
