<?xml version="1.0" encoding="UTF-8"?>
<svg xmlns="http://www.w3.org/2000/svg" version="1.1" viewBox="0 0 100 100">
  <defs>
    <style>
      .cls-1 {
        fill: #223a5e;
      }
    </style>
  </defs>
  <!-- Generator: Adobe Illustrator 28.7.1, SVG Export Plug-In . SVG Version: 1.2.0 Build 142)  -->
  <g>
    <g id="Layer_1">
      <g id="Shopicon">
        <rect class="cls-1" x="0" y="56.3" width="15" height="12.5"/>
        <rect class="cls-1" x="0" y="31.2" width="15" height="12.5"/>
        <rect class="cls-1" x="0" y="6.2" width="15" height="12.5"/>
        <path class="cls-1" d="M100,50l-10-25h-10v-12.5c0-6.9-4.5-12.5-10-12.5H30c-5.5,0-10,5.6-10,12.5v62.5c0,6.9,4.5,12.5,10,12.5h5c0,6.9,4.5,12.5,10,12.5s10-5.6,10-12.5h17.5c0,6.9,4.5,12.5,10,12.5s10-5.6,10-12.5h7.5v-37.5ZM85,87.5c0,1.7-1.1,3.1-2.5,3.1s-2.5-1.4-2.5-3.1,1.1-3.1,2.5-3.1,2.5,1.4,2.5,3.1ZM45,90.6c-1.4,0-2.5-1.4-2.5-3.1s1.1-3.1,2.5-3.1,2.5,1.4,2.5,3.1-1.1,3.1-2.5,3.1ZM92.5,56.3h-2.5c-5.5,0-10-5.6-10-12.5v-9.4h5.4l7.1,17.8v4Z"/>
      </g>
    </g>
  </g>
</svg>