<?xml version="1.0" encoding="utf-8"?>
<!-- Generator: Adobe Illustrator 28.0.0, SVG Export Plug-In . SVG Version: 6.00 Build 0)  -->
<svg version="1.1" id="Layer_1" xmlns="http://www.w3.org/2000/svg" xmlns:xlink="http://www.w3.org/1999/xlink" x="0px" y="0px"
	 viewBox="0 0 305.778 276.148" style="enable-background:new 0 0 305.778 276.148;" xml:space="preserve">
<style type="text/css">
	.st0{fill:#FFFFFF;}
</style>
<g>
	<g>
		<path class="st0" d="M247.589,180.393c-10.486-4.145-20.821-7.406-30.907-9.954v-30.95l22.876-22.876
			c0.824-0.823,0.824-2.159,0-2.982c-0.824-0.824-2.158-0.824-2.982,0l-19.894,19.893V97.877c0-1.165-0.944-2.109-2.109-2.109
			c-1.165,0-2.109,0.944-2.109,2.109v36.148l-24.902-24.902l21.135-21.135h31.619c1.165,0,2.109-0.944,2.109-2.109
			s-0.944-2.109-2.109-2.109h-27.401l21.644-21.643c0.824-0.823,0.824-2.159,0-2.982c-0.824-0.824-2.158-0.824-2.982,0
			l-21.643,21.643v-27.65c0-1.165-0.944-2.109-2.109-2.109s-2.109,0.944-2.109,2.109v31.868l-19.026,19.026v-53.77l22.626-22.626
			c0.824-0.823,0.824-2.159,0-2.982c-0.824-0.824-2.158-0.824-2.982,0l-19.644,19.644v-31.65c0-1.165-0.944-2.109-2.109-2.109
			s-2.109,0.944-2.109,2.109v91.384l-27.901-27.901l14.005-14.005c0.824-0.823,0.824-2.159,0-2.982
			c-0.824-0.824-2.158-0.824-2.982,0L151.589,73.15l-14.005-14.005c-0.824-0.824-2.158-0.824-2.982,0
			c-0.824,0.823-0.824,2.159,0,2.982l14.005,14.005l-27.526,27.526V12.649c0-1.165-0.944-2.109-2.109-2.109
			s-2.109,0.944-2.109,2.109v31.774L97.094,24.655c-0.824-0.824-2.158-0.824-2.982,0c-0.824,0.823-0.824,2.159,0,2.982
			l22.751,22.751v53.52L97.712,84.757V53.139c0-1.165-0.944-2.109-2.109-2.109c-1.165,0-2.109,0.944-2.109,2.109v27.401
			L72.101,59.145c-0.824-0.824-2.158-0.824-2.982,0c-0.824,0.823-0.824,2.159,0,2.982L90.551,83.56l-27.456,0.211
			c-1.164,0.009-2.101,0.961-2.092,2.125c0.009,1.159,0.951,2.093,2.109,2.093c0.005,0,0.011,0,0.016,0l31.609-0.243l21.128,21.128
			l-24.401,24.401V97.877c0-1.165-0.944-2.109-2.109-2.109s-2.109,0.944-2.109,2.109v35.898l-19.895-19.894
			c-0.824-0.824-2.158-0.824-2.982,0c-0.824,0.823-0.824,2.159,0,2.982l22.877,22.877v30.938
			c-18.276,4.598-29.122,9.469-29.757,9.757c-1.06,0.482-1.528,1.732-1.046,2.792c0.483,1.061,1.73,1.53,2.793,1.047
			c0.217-0.099,22.134-9.935,55.988-14.804c0.971-0.14,1.958-0.276,2.961-0.408c0.244,0.098,0.508,0.155,0.787,0.155
			c0.465,0,0.892-0.156,1.241-0.411c17.175-2.131,38.743-3.07,62.831-0.262c0.385,0.412,0.929,0.673,1.537,0.673
			c0.43,0,0.83-0.13,1.163-0.352c18.912,2.409,39.307,7.154,60.295,15.45c0.255,0.1,0.516,0.148,0.774,0.148
			c0.84,0,1.634-0.506,1.962-1.334C249.202,182.047,248.672,180.822,247.589,180.393z M212.464,169.41
			c-8.824-2.069-17.441-3.598-25.775-4.673v-50.522l25.775,25.775V169.41z M182.471,116.013h-28.774v-34.79l28.774,28.774V116.013z
			 M149.48,81.223v34.79h-28.399v-6.39L149.48,81.223z M114.468,165.319c-8.484,1.225-16.19,2.741-23.004,4.334v-30.414
			l25.399-25.399v51.147C116.057,165.096,115.253,165.205,114.468,165.319z M121.081,164.451v-44.221h61.391v43.999
			C159.076,161.599,138.055,162.435,121.081,164.451z"/>
		<path class="st0" d="M151.776,50.936c10.623,0,19.266-8.643,19.266-19.266c0-10.624-8.643-19.267-19.266-19.267
			c-10.624,0-19.267,8.643-19.267,19.267C132.509,42.293,141.152,50.936,151.776,50.936z M151.776,16.621
			c8.298,0,15.048,6.751,15.048,15.049c0,8.298-6.751,15.048-15.048,15.048c-8.299,0-15.049-6.751-15.049-15.048
			C136.727,23.372,143.478,16.621,151.776,16.621z"/>
	</g>
	<g>
		<path class="st0" d="M13.13,229.747c-3.911-4.062-5.867-8.876-5.867-14.443s1.956-10.38,5.867-14.292
			c4.062-4.062,8.876-6.018,14.443-6.018c3.761,0,7.071,0.902,10.08,2.708c3.159,1.655,5.566,4.062,7.221,7.071
			c0.602,0.752,0.451,1.354-0.452,1.805c-0.602,0.451-1.203,0.301-1.805-0.452c-3.46-5.566-8.425-8.425-15.044-8.425
			c-4.814,0-9.027,1.655-12.487,5.115c-3.46,3.46-5.115,7.522-5.115,12.487c0,4.814,1.655,9.027,5.115,12.487
			c3.46,3.46,7.673,5.115,12.487,5.115c6.619,0,11.584-2.858,15.044-8.425c0.602-0.752,1.204-0.903,1.805-0.451
			c0.752,0.451,0.903,1.053,0.452,1.805c-1.655,3.009-4.062,5.416-7.221,7.071c-3.009,1.805-6.318,2.708-10.08,2.708
			C22.007,235.615,17.192,233.659,13.13,229.747z"/>
		<path class="st0" d="M74.962,195.747c0.602-0.752,1.655-0.902,2.106-0.15l0.301,0.602l18.203,37.46
			c0.301,0.752,0.15,1.354-0.602,1.805c-0.752,0.451-1.354,0.301-1.805-0.602l-4.514-9.327H63.378l-4.363,9.327
			c-1.053,1.655-3.009,0.452-2.407-1.203L74.962,195.747z M76.015,199.208l-11.283,23.619h22.567L76.015,199.208z"/>
		<path class="st0" d="M107.157,225.836c-0.15-0.903,0.15-1.505,0.903-1.655c0.752-0.301,1.354,0,1.805,0.902
			c1.053,4.212,6.168,7.823,14.593,7.823c8.274,0,13.389-3.46,13.389-8.425c0-2.257-1.053-4.062-3.009-5.115
			c-2.257-1.505-5.867-2.708-11.133-3.761c-5.266-1.053-9.027-2.407-11.283-3.911c-2.557-1.805-3.761-4.062-3.761-6.92
			c0-6.018,6.318-9.779,16.398-9.779c4.363,0,7.973,0.902,10.681,2.708c3.159,1.956,4.664,4.363,4.664,7.372
			c0.151,0.902-0.15,1.354-1.203,1.354c-0.752,0.15-1.354-0.602-1.354-1.354c-0.15-4.212-5.566-7.372-12.787-7.372
			c-4.213,0-7.673,0.752-10.23,2.106c-2.257,1.204-3.46,2.859-3.46,4.965c0,3.761,4.213,6.469,12.788,8.124
			c10.832,2.257,16.248,5.115,16.248,11.584c0,6.77-6.318,11.133-15.947,11.133C115.582,235.615,108.812,231.703,107.157,225.836z"
			/>
		<path class="st0" d="M170.042,195.747c0.602-0.752,1.655-0.902,2.106-0.15l0.301,0.602l18.203,37.46
			c0.301,0.752,0.15,1.354-0.602,1.805c-0.752,0.451-1.354,0.301-1.805-0.602l-4.514-9.327h-25.274l-4.363,9.327
			c-1.053,1.655-3.009,0.452-2.407-1.203L170.042,195.747z M171.095,199.208l-11.283,23.619h22.566L171.095,199.208z"/>
		<path class="st0" d="M204.042,235.615c-0.902,0-1.354-0.452-1.354-1.354v-37.912c0-1.805,2.708-1.805,2.708,0v36.558h25.726
			c1.805,0,1.805,2.708,0,2.708H204.042z"/>
		<path class="st0" d="M243.759,196.349c0-1.805,2.708-1.805,2.708,0v37.912c0,1.805-2.708,1.805-2.708,0V196.349z"/>
		<path class="st0" d="M277.759,195.747c0.602-0.752,1.655-0.902,2.106-0.15l0.301,0.602l18.203,37.46
			c0.301,0.752,0.15,1.354-0.602,1.805c-0.752,0.451-1.354,0.301-1.805-0.602l-4.514-9.327h-25.274l-4.363,9.327
			c-1.053,1.655-3.009,0.452-2.407-1.203L277.759,195.747z M278.812,199.208l-11.283,23.619h22.566L278.812,199.208z"/>
	</g>
	<g>
		<path class="st0" d="M62.669,253.74h-4.547v-1.183h10.463v1.183h-4.547v11.757h-1.368V253.74z"/>
		<path class="st0" d="M76.311,252.557h1.368v12.94h-1.368V252.557z"/>
		<path class="st0" d="M98.253,252.557v12.94h-1.128l-8.318-10.5v10.5h-1.368v-12.94h1.128l8.337,10.5v-10.5H98.253z"/>
		<path class="st0" d="M112.449,261.024v4.473H111.1v-4.473l-5.176-8.466h1.461l4.436,7.265l4.436-7.265h1.368L112.449,261.024z"/>
		<path class="st0" d="M146.499,252.557v12.94h-1.349v-5.971h-8.097v5.971h-1.368v-12.94h1.368v5.767h8.097v-5.767H146.499z"/>
		<path class="st0" d="M158.432,264.748c-1.041-0.573-1.855-1.359-2.44-2.357c-0.585-0.998-0.878-2.119-0.878-3.364
			c0-1.244,0.293-2.366,0.878-3.364c0.585-0.998,1.399-1.784,2.44-2.357c1.041-0.573,2.203-0.86,3.485-0.86
			c1.282,0,2.437,0.284,3.466,0.85c1.029,0.567,1.839,1.353,2.431,2.357c0.591,1.004,0.887,2.129,0.887,3.373
			c0,1.245-0.296,2.369-0.887,3.374c-0.592,1.004-1.402,1.79-2.431,2.357c-1.029,0.567-2.184,0.85-3.466,0.85
			C160.634,265.608,159.473,265.321,158.432,264.748z M164.689,263.695c0.825-0.462,1.472-1.103,1.941-1.923
			c0.468-0.819,0.702-1.734,0.702-2.745c0-1.01-0.234-1.925-0.702-2.745c-0.469-0.819-1.115-1.46-1.941-1.922
			c-0.826-0.462-1.75-0.693-2.773-0.693c-1.023,0-1.95,0.231-2.782,0.693c-0.832,0.462-1.485,1.103-1.959,1.922
			c-0.475,0.82-0.712,1.735-0.712,2.745c0,1.011,0.237,1.926,0.712,2.745c0.474,0.82,1.127,1.461,1.959,1.923
			c0.832,0.462,1.759,0.693,2.782,0.693C162.939,264.388,163.863,264.157,164.689,263.695z"/>
		<path class="st0" d="M178.608,264.166c-0.937-0.962-1.405-2.36-1.405-4.197v-7.412h1.368v7.357c0,1.504,0.339,2.625,1.017,3.364
			c0.678,0.739,1.657,1.109,2.939,1.109c1.294,0,2.28-0.37,2.958-1.109s1.017-1.861,1.017-3.364v-7.357h1.331v7.412
			c0,1.837-0.466,3.235-1.396,4.197c-0.931,0.961-2.234,1.442-3.91,1.442S179.544,265.127,178.608,264.166z"/>
		<path class="st0" d="M198.305,265.146c-0.881-0.308-1.562-0.714-2.043-1.22l0.536-1.054c0.468,0.469,1.09,0.848,1.867,1.137
			s1.577,0.434,2.403,0.434c1.158,0,2.027-0.212,2.606-0.638c0.579-0.425,0.869-0.977,0.869-1.655c0-0.517-0.157-0.93-0.472-1.238
			c-0.314-0.308-0.699-0.546-1.155-0.712c-0.456-0.166-1.091-0.348-1.904-0.545c-0.974-0.246-1.75-0.484-2.329-0.712
			c-0.579-0.228-1.075-0.576-1.488-1.044c-0.413-0.468-0.619-1.103-0.619-1.904c0-0.653,0.173-1.248,0.518-1.784
			c0.345-0.536,0.875-0.964,1.589-1.285c0.715-0.32,1.602-0.481,2.662-0.481c0.74,0,1.463,0.102,2.172,0.305
			c0.709,0.203,1.322,0.484,1.84,0.841l-0.462,1.09c-0.543-0.357-1.122-0.625-1.738-0.804c-0.616-0.179-1.22-0.268-1.812-0.268
			c-1.134,0-1.987,0.219-2.56,0.656c-0.573,0.438-0.86,1.001-0.86,1.691c0,0.517,0.157,0.933,0.471,1.248
			c0.314,0.314,0.709,0.555,1.183,0.721c0.474,0.167,1.112,0.349,1.913,0.546c0.949,0.234,1.716,0.465,2.302,0.693
			c0.585,0.228,1.081,0.573,1.488,1.035c0.407,0.462,0.61,1.088,0.61,1.876c0,0.653-0.176,1.248-0.527,1.784
			c-0.351,0.536-0.89,0.962-1.617,1.276c-0.727,0.314-1.621,0.472-2.68,0.472C200.107,265.608,199.185,265.454,198.305,265.146z"/>
		<path class="st0" d="M223.565,264.314v1.183h-9.15v-12.94h8.873v1.183h-7.505v4.603h6.692v1.165h-6.692v4.806H223.565z"/>
		<path class="st0" d="M233.131,265.146c-0.881-0.308-1.562-0.714-2.043-1.22l0.536-1.054c0.468,0.469,1.09,0.848,1.867,1.137
			c0.777,0.29,1.577,0.434,2.403,0.434c1.158,0,2.027-0.212,2.606-0.638c0.579-0.425,0.869-0.977,0.869-1.655
			c0-0.517-0.157-0.93-0.472-1.238c-0.314-0.308-0.699-0.546-1.155-0.712c-0.456-0.166-1.091-0.348-1.904-0.545
			c-0.974-0.246-1.75-0.484-2.329-0.712c-0.579-0.228-1.075-0.576-1.488-1.044c-0.413-0.468-0.619-1.103-0.619-1.904
			c0-0.653,0.173-1.248,0.518-1.784c0.345-0.536,0.875-0.964,1.589-1.285s1.602-0.481,2.662-0.481c0.74,0,1.463,0.102,2.172,0.305
			c0.709,0.203,1.322,0.484,1.84,0.841l-0.462,1.09c-0.543-0.357-1.122-0.625-1.738-0.804c-0.616-0.179-1.22-0.268-1.812-0.268
			c-1.134,0-1.987,0.219-2.56,0.656c-0.573,0.438-0.86,1.001-0.86,1.691c0,0.517,0.157,0.933,0.471,1.248
			c0.314,0.314,0.709,0.555,1.183,0.721c0.474,0.167,1.112,0.349,1.913,0.546c0.949,0.234,1.716,0.465,2.302,0.693
			c0.585,0.228,1.081,0.573,1.488,1.035c0.407,0.462,0.61,1.088,0.61,1.876c0,0.653-0.176,1.248-0.527,1.784
			c-0.351,0.536-0.89,0.962-1.617,1.276c-0.727,0.314-1.621,0.472-2.68,0.472C234.933,265.608,234.011,265.454,233.131,265.146z"/>
	</g>
</g>
</svg>
