<?xml version="1.0" encoding="UTF-8"?>
<svg xmlns="http://www.w3.org/2000/svg" version="1.1" viewBox="0 0 100 100">
  <defs>
    <style>
      .cls-1 {
        fill: #223a5e;
        stroke: #223a5e;
        stroke-miterlimit: 3.1;
        stroke-width: .8px;
      }
    </style>
  </defs>
  <!-- Generator: Adobe Illustrator 28.7.1, SVG Export Plug-In . SVG Version: 1.2.0 Build 142)  -->
  <g>
    <g id="Layer_1">
      <g id="SVGRepo_iconCarrier">
        <path class="cls-1" d="M19.3,71.9h61.5V30.8l-26.4-21.6c-2.5-2.1-6.1-2.1-8.6,0l-26.4,21.6v41.2ZM19.3,78.7v13.7h61.5v-13.7H19.3ZM58.6,3.9l27.7,22.6c.8.6,1.3,1.6,1.3,2.6v66.7c0,1.9-1.5,3.4-3.4,3.4H15.9c-1.9,0-3.4-1.5-3.4-3.4V29.1c0-1,.5-2,1.2-2.6L41.3,3.9c5-4.1,12.3-4.1,17.3,0h0Z"/>
        <path class="cls-1" d="M50,44.6c3.8,0,6.8-3.1,6.8-6.8s-3.1-6.8-6.8-6.8-6.8,3.1-6.8,6.8,3.1,6.8,6.8,6.8ZM50,51.4c-7.5,0-13.7-6.1-13.7-13.7s6.1-13.7,13.7-13.7,13.7,6.1,13.7,13.7-6.1,13.7-13.7,13.7Z"/>
      </g>
    </g>
  </g>
</svg>